<svg xmlns="http://www.w3.org/2000/svg" xmlns:xlink="http://www.w3.org/1999/xlink" width="500" zoomAndPan="magnify" viewBox="0 0 375 374.999991" height="500" preserveAspectRatio="xMidYMid meet" version="1.2"><defs/><g id="08d5a96a05"><rect x="0" width="375" y="0" height="374.999991" style="fill:#ffffff;fill-opacity:1;stroke:none;"/><rect x="0" width="375" y="0" height="374.999991" style="fill:#ffffff;fill-opacity:1;stroke:none;"/><g style="fill:#02084b;fill-opacity:1;"><g transform="translate(126.71389, 211.211737)"><path style="stroke:none" d="M 8.5 -0.203125 L 8.59375 -0.203125 C 8.90625 -0.203125 9.0625 -0.347656 9.0625 -0.640625 C 9.0625 -0.742188 9.046875 -0.851562 9.015625 -0.96875 L 7.21875 -5.8125 L 3.734375 -5.8125 L 2.015625 -1.046875 C 1.972656 -0.941406 1.953125 -0.84375 1.953125 -0.75 C 1.953125 -0.582031 2 -0.445312 2.09375 -0.34375 C 2.1875 -0.25 2.285156 -0.203125 2.390625 -0.203125 L 2.484375 -0.203125 L 2.484375 0 L 0.28125 0 L 0.28125 -0.203125 L 0.375 -0.203125 C 0.550781 -0.203125 0.722656 -0.300781 0.890625 -0.5 C 1.054688 -0.707031 1.191406 -0.953125 1.296875 -1.234375 L 5.84375 -13.359375 L 10.296875 -1.359375 C 10.390625 -1.085938 10.519531 -0.828125 10.6875 -0.578125 C 10.851562 -0.328125 11.070312 -0.203125 11.34375 -0.203125 L 11.4375 -0.203125 L 11.4375 0 L 8.5 0 Z M 3.9375 -6.484375 L 7 -6.484375 L 5.46875 -10.640625 Z M 3.9375 -6.484375 "/></g></g><g style="fill:#02084b;fill-opacity:1;"><g transform="translate(137.038715, 211.211737)"><path style="stroke:none" d="M 7.21875 0 L 7.21875 -0.875 C 6.988281 -0.625 6.6875 -0.390625 6.3125 -0.171875 C 5.9375 0.0351562 5.460938 0.140625 4.890625 0.140625 C 4.191406 0.140625 3.578125 0.0195312 3.046875 -0.21875 C 2.523438 -0.46875 2.09375 -0.789062 1.75 -1.1875 C 1.40625 -1.59375 1.148438 -2.050781 0.984375 -2.5625 C 0.816406 -3.070312 0.734375 -3.597656 0.734375 -4.140625 C 0.734375 -4.671875 0.816406 -5.195312 0.984375 -5.71875 C 1.160156 -6.238281 1.421875 -6.703125 1.765625 -7.109375 C 2.109375 -7.523438 2.539062 -7.859375 3.0625 -8.109375 C 3.582031 -8.367188 4.179688 -8.5 4.859375 -8.5 C 5.304688 -8.5 5.75 -8.414062 6.1875 -8.25 C 6.625 -8.082031 6.96875 -7.863281 7.21875 -7.59375 L 7.21875 -11.484375 C 7.21875 -11.703125 7.179688 -11.910156 7.109375 -12.109375 C 7.046875 -12.304688 6.859375 -12.414062 6.546875 -12.4375 L 6.546875 -12.625 L 8.53125 -13.25 L 8.53125 -1.296875 C 8.53125 -1.191406 8.539062 -1.070312 8.5625 -0.9375 C 8.59375 -0.8125 8.632812 -0.695312 8.6875 -0.59375 C 8.738281 -0.488281 8.804688 -0.394531 8.890625 -0.3125 C 8.972656 -0.238281 9.066406 -0.203125 9.171875 -0.203125 L 9.171875 0 Z M 5.03125 -0.515625 C 5.3125 -0.515625 5.582031 -0.570312 5.84375 -0.6875 C 6.113281 -0.800781 6.347656 -0.953125 6.546875 -1.140625 C 6.742188 -1.335938 6.90625 -1.5625 7.03125 -1.8125 C 7.15625 -2.070312 7.21875 -2.359375 7.21875 -2.671875 L 7.21875 -5.390625 C 7.21875 -5.765625 7.140625 -6.097656 6.984375 -6.390625 C 6.828125 -6.691406 6.628906 -6.945312 6.390625 -7.15625 C 6.148438 -7.375 5.882812 -7.535156 5.59375 -7.640625 C 5.3125 -7.753906 5.039062 -7.8125 4.78125 -7.8125 C 4.34375 -7.8125 3.945312 -7.707031 3.59375 -7.5 C 3.25 -7.300781 2.957031 -7.035156 2.71875 -6.703125 C 2.476562 -6.378906 2.300781 -6.015625 2.1875 -5.609375 C 2.070312 -5.210938 2.015625 -4.816406 2.015625 -4.421875 C 2.015625 -3.953125 2.078125 -3.488281 2.203125 -3.03125 C 2.335938 -2.570312 2.535156 -2.160156 2.796875 -1.796875 C 3.054688 -1.429688 3.367188 -1.128906 3.734375 -0.890625 C 4.109375 -0.648438 4.539062 -0.523438 5.03125 -0.515625 Z M 5.03125 -0.515625 "/></g></g><g style="fill:#02084b;fill-opacity:1;"><g transform="translate(145.831631, 211.211737)"><path style="stroke:none" d="M 8.9375 -8.359375 L 8.9375 -8.15625 C 8.84375 -8.15625 8.75 -8.117188 8.65625 -8.046875 C 8.5625 -7.984375 8.46875 -7.898438 8.375 -7.796875 C 8.289062 -7.691406 8.210938 -7.578125 8.140625 -7.453125 C 8.066406 -7.328125 8.003906 -7.207031 7.953125 -7.09375 L 4.53125 0.34375 L 1.140625 -7.1875 C 1.046875 -7.394531 0.925781 -7.609375 0.78125 -7.828125 C 0.632812 -8.046875 0.445312 -8.15625 0.21875 -8.15625 L 0.21875 -8.359375 L 2.9375 -8.359375 L 2.9375 -8.15625 C 2.863281 -8.15625 2.765625 -8.113281 2.640625 -8.03125 C 2.515625 -7.957031 2.453125 -7.847656 2.453125 -7.703125 C 2.453125 -7.628906 2.503906 -7.472656 2.609375 -7.234375 L 4.890625 -2.09375 L 7.359375 -7.453125 C 7.410156 -7.585938 7.4375 -7.6875 7.4375 -7.75 C 7.4375 -7.875 7.378906 -7.972656 7.265625 -8.046875 C 7.148438 -8.117188 7.054688 -8.15625 6.984375 -8.15625 L 6.984375 -8.359375 Z M 8.9375 -8.359375 "/></g></g><g style="fill:#02084b;fill-opacity:1;"><g transform="translate(153.689477, 211.211737)"><path style="stroke:none" d="M 5.078125 0.140625 C 4.410156 0.140625 3.8125 0.03125 3.28125 -0.1875 C 2.75 -0.40625 2.296875 -0.703125 1.921875 -1.078125 C 1.546875 -1.460938 1.253906 -1.910156 1.046875 -2.421875 C 0.835938 -2.941406 0.734375 -3.507812 0.734375 -4.125 C 0.734375 -4.769531 0.84375 -5.359375 1.0625 -5.890625 C 1.289062 -6.429688 1.601562 -6.894531 2 -7.28125 C 2.40625 -7.664062 2.878906 -7.960938 3.421875 -8.171875 C 3.960938 -8.390625 4.550781 -8.5 5.1875 -8.5 C 5.820312 -8.5 6.40625 -8.394531 6.9375 -8.1875 C 7.46875 -7.976562 7.925781 -7.6875 8.3125 -7.3125 C 8.695312 -6.945312 8.992188 -6.507812 9.203125 -6 C 9.421875 -5.488281 9.53125 -4.925781 9.53125 -4.3125 C 9.53125 -3.75 9.429688 -3.195312 9.234375 -2.65625 C 9.046875 -2.113281 8.757812 -1.632812 8.375 -1.21875 C 8 -0.8125 7.535156 -0.484375 6.984375 -0.234375 C 6.441406 0.015625 5.804688 0.140625 5.078125 0.140625 Z M 4.953125 -7.84375 C 4.472656 -7.8125 4.050781 -7.691406 3.6875 -7.484375 C 3.320312 -7.285156 3.015625 -7.019531 2.765625 -6.6875 C 2.523438 -6.363281 2.34375 -5.992188 2.21875 -5.578125 C 2.09375 -5.171875 2.03125 -4.757812 2.03125 -4.34375 C 2.03125 -3.84375 2.101562 -3.363281 2.25 -2.90625 C 2.40625 -2.457031 2.625 -2.050781 2.90625 -1.6875 C 3.195312 -1.332031 3.539062 -1.046875 3.9375 -0.828125 C 4.332031 -0.617188 4.773438 -0.515625 5.265625 -0.515625 C 5.753906 -0.515625 6.1875 -0.617188 6.5625 -0.828125 C 6.945312 -1.046875 7.265625 -1.320312 7.515625 -1.65625 C 7.765625 -2 7.953125 -2.378906 8.078125 -2.796875 C 8.210938 -3.222656 8.28125 -3.648438 8.28125 -4.078125 C 8.28125 -4.515625 8.210938 -4.953125 8.078125 -5.390625 C 7.941406 -5.835938 7.734375 -6.242188 7.453125 -6.609375 C 7.179688 -6.972656 6.832031 -7.269531 6.40625 -7.5 C 5.988281 -7.726562 5.503906 -7.84375 4.953125 -7.84375 Z M 4.953125 -7.84375 "/></g></g><g style="fill:#02084b;fill-opacity:1;"><g transform="translate(162.681344, 211.211737)"><path style="stroke:none" d="M 8.234375 -0.71875 C 8.128906 -0.71875 8.03125 -0.691406 7.9375 -0.640625 C 7.84375 -0.597656 7.738281 -0.546875 7.625 -0.484375 C 7.394531 -0.347656 7.109375 -0.207031 6.765625 -0.0625 C 6.421875 0.0703125 5.96875 0.140625 5.40625 0.140625 C 4.726562 0.140625 4.101562 0.03125 3.53125 -0.1875 C 2.957031 -0.40625 2.457031 -0.707031 2.03125 -1.09375 C 1.613281 -1.488281 1.289062 -1.945312 1.0625 -2.46875 C 0.832031 -3 0.71875 -3.566406 0.71875 -4.171875 C 0.71875 -4.742188 0.816406 -5.285156 1.015625 -5.796875 C 1.222656 -6.316406 1.519531 -6.773438 1.90625 -7.171875 C 2.289062 -7.578125 2.765625 -7.898438 3.328125 -8.140625 C 3.890625 -8.378906 4.53125 -8.5 5.25 -8.5 C 5.738281 -8.5 6.132812 -8.441406 6.4375 -8.328125 C 6.75 -8.210938 7.007812 -8.101562 7.21875 -8 C 7.34375 -7.925781 7.457031 -7.867188 7.5625 -7.828125 C 7.675781 -7.796875 7.796875 -7.78125 7.921875 -7.78125 L 7.921875 -6.265625 L 7.71875 -6.265625 C 7.65625 -6.515625 7.535156 -6.734375 7.359375 -6.921875 C 7.179688 -7.117188 6.976562 -7.285156 6.75 -7.421875 C 6.53125 -7.554688 6.285156 -7.65625 6.015625 -7.71875 C 5.753906 -7.78125 5.5 -7.8125 5.25 -7.8125 C 4.707031 -7.8125 4.226562 -7.710938 3.8125 -7.515625 C 3.40625 -7.328125 3.066406 -7.078125 2.796875 -6.765625 C 2.535156 -6.460938 2.335938 -6.109375 2.203125 -5.703125 C 2.078125 -5.304688 2.015625 -4.894531 2.015625 -4.46875 C 2.015625 -3.976562 2.09375 -3.5 2.25 -3.03125 C 2.40625 -2.5625 2.628906 -2.140625 2.921875 -1.765625 C 3.222656 -1.398438 3.585938 -1.101562 4.015625 -0.875 C 4.441406 -0.644531 4.921875 -0.53125 5.453125 -0.53125 C 5.816406 -0.53125 6.15625 -0.582031 6.46875 -0.6875 C 6.78125 -0.800781 7.046875 -0.941406 7.265625 -1.109375 C 7.484375 -1.285156 7.660156 -1.472656 7.796875 -1.671875 C 7.929688 -1.878906 8.007812 -2.078125 8.03125 -2.265625 L 8.234375 -2.265625 Z M 8.234375 -0.71875 "/></g></g><g style="fill:#02084b;fill-opacity:1;"><g transform="translate(169.94234, 211.211737)"><path style="stroke:none" d="M 6.140625 0 L 6.140625 -1.015625 L 6.046875 -0.921875 C 5.710938 -0.585938 5.328125 -0.328125 4.890625 -0.140625 C 4.460938 0.046875 3.945312 0.140625 3.34375 0.140625 C 2.875 0.140625 2.472656 0.0859375 2.140625 -0.015625 C 1.816406 -0.117188 1.546875 -0.265625 1.328125 -0.453125 C 1.117188 -0.648438 0.960938 -0.875 0.859375 -1.125 C 0.765625 -1.382812 0.71875 -1.648438 0.71875 -1.921875 C 0.71875 -2.378906 0.835938 -2.78125 1.078125 -3.125 C 1.328125 -3.46875 1.679688 -3.769531 2.140625 -4.03125 C 2.609375 -4.300781 3.175781 -4.546875 3.84375 -4.765625 C 4.519531 -4.984375 5.285156 -5.195312 6.140625 -5.40625 C 6.117188 -5.925781 6.015625 -6.34375 5.828125 -6.65625 C 5.640625 -6.976562 5.421875 -7.226562 5.171875 -7.40625 C 4.921875 -7.582031 4.65625 -7.703125 4.375 -7.765625 C 4.09375 -7.828125 3.851562 -7.859375 3.65625 -7.859375 C 3.3125 -7.859375 3.007812 -7.800781 2.75 -7.6875 C 2.488281 -7.582031 2.265625 -7.445312 2.078125 -7.28125 C 1.890625 -7.125 1.726562 -6.945312 1.59375 -6.75 C 1.457031 -6.5625 1.347656 -6.378906 1.265625 -6.203125 L 1.09375 -6.203125 L 1.09375 -7.65625 C 1.195312 -7.664062 1.296875 -7.695312 1.390625 -7.75 C 1.484375 -7.8125 1.597656 -7.867188 1.734375 -7.921875 C 1.929688 -7.992188 2.203125 -8.109375 2.546875 -8.265625 C 2.890625 -8.421875 3.375 -8.5 4 -8.5 C 4.726562 -8.5 5.316406 -8.40625 5.765625 -8.21875 C 6.210938 -8.03125 6.5625 -7.78125 6.8125 -7.46875 C 7.0625 -7.164062 7.222656 -6.816406 7.296875 -6.421875 C 7.378906 -6.035156 7.421875 -5.640625 7.421875 -5.234375 L 7.421875 -1.296875 C 7.421875 -1.023438 7.476562 -0.773438 7.59375 -0.546875 C 7.71875 -0.316406 7.878906 -0.203125 8.078125 -0.203125 L 8.078125 0 Z M 6.140625 -1.890625 L 6.140625 -4.734375 L 5.953125 -4.6875 C 5.628906 -4.613281 5.238281 -4.507812 4.78125 -4.375 C 4.320312 -4.238281 3.882812 -4.066406 3.46875 -3.859375 C 3.0625 -3.648438 2.710938 -3.398438 2.421875 -3.109375 C 2.128906 -2.816406 1.984375 -2.476562 1.984375 -2.09375 C 1.984375 -1.664062 2.15625 -1.3125 2.5 -1.03125 C 2.84375 -0.75 3.296875 -0.609375 3.859375 -0.609375 C 4.296875 -0.609375 4.679688 -0.703125 5.015625 -0.890625 C 5.347656 -1.085938 5.648438 -1.34375 5.921875 -1.65625 Z M 6.140625 -1.890625 "/></g></g><g style="fill:#02084b;fill-opacity:1;"><g transform="translate(177.621133, 211.211737)"><path style="stroke:none" d="M 8.234375 -0.71875 C 8.128906 -0.71875 8.03125 -0.691406 7.9375 -0.640625 C 7.84375 -0.597656 7.738281 -0.546875 7.625 -0.484375 C 7.394531 -0.347656 7.109375 -0.207031 6.765625 -0.0625 C 6.421875 0.0703125 5.96875 0.140625 5.40625 0.140625 C 4.726562 0.140625 4.101562 0.03125 3.53125 -0.1875 C 2.957031 -0.40625 2.457031 -0.707031 2.03125 -1.09375 C 1.613281 -1.488281 1.289062 -1.945312 1.0625 -2.46875 C 0.832031 -3 0.71875 -3.566406 0.71875 -4.171875 C 0.71875 -4.742188 0.816406 -5.285156 1.015625 -5.796875 C 1.222656 -6.316406 1.519531 -6.773438 1.90625 -7.171875 C 2.289062 -7.578125 2.765625 -7.898438 3.328125 -8.140625 C 3.890625 -8.378906 4.53125 -8.5 5.25 -8.5 C 5.738281 -8.5 6.132812 -8.441406 6.4375 -8.328125 C 6.75 -8.210938 7.007812 -8.101562 7.21875 -8 C 7.34375 -7.925781 7.457031 -7.867188 7.5625 -7.828125 C 7.675781 -7.796875 7.796875 -7.78125 7.921875 -7.78125 L 7.921875 -6.265625 L 7.71875 -6.265625 C 7.65625 -6.515625 7.535156 -6.734375 7.359375 -6.921875 C 7.179688 -7.117188 6.976562 -7.285156 6.75 -7.421875 C 6.53125 -7.554688 6.285156 -7.65625 6.015625 -7.71875 C 5.753906 -7.78125 5.5 -7.8125 5.25 -7.8125 C 4.707031 -7.8125 4.226562 -7.710938 3.8125 -7.515625 C 3.40625 -7.328125 3.066406 -7.078125 2.796875 -6.765625 C 2.535156 -6.460938 2.335938 -6.109375 2.203125 -5.703125 C 2.078125 -5.304688 2.015625 -4.894531 2.015625 -4.46875 C 2.015625 -3.976562 2.09375 -3.5 2.25 -3.03125 C 2.40625 -2.5625 2.628906 -2.140625 2.921875 -1.765625 C 3.222656 -1.398438 3.585938 -1.101562 4.015625 -0.875 C 4.441406 -0.644531 4.921875 -0.53125 5.453125 -0.53125 C 5.816406 -0.53125 6.15625 -0.582031 6.46875 -0.6875 C 6.78125 -0.800781 7.046875 -0.941406 7.265625 -1.109375 C 7.484375 -1.285156 7.660156 -1.472656 7.796875 -1.671875 C 7.929688 -1.878906 8.007812 -2.078125 8.03125 -2.265625 L 8.234375 -2.265625 Z M 8.234375 -0.71875 "/></g></g><g style="fill:#02084b;fill-opacity:1;"><g transform="translate(184.882129, 211.211737)"><path style="stroke:none" d="M 1.171875 0 L 1.171875 -0.203125 C 1.273438 -0.203125 1.367188 -0.238281 1.453125 -0.3125 C 1.535156 -0.394531 1.601562 -0.488281 1.65625 -0.59375 C 1.707031 -0.695312 1.742188 -0.8125 1.765625 -0.9375 C 1.796875 -1.070312 1.8125 -1.191406 1.8125 -1.296875 L 1.8125 -6.796875 C 1.8125 -7.023438 1.773438 -7.238281 1.703125 -7.4375 C 1.640625 -7.644531 1.453125 -7.757812 1.140625 -7.78125 L 1.140625 -7.953125 L 3.125 -8.59375 L 3.125 -1.296875 C 3.125 -1.191406 3.132812 -1.070312 3.15625 -0.9375 C 3.1875 -0.8125 3.226562 -0.695312 3.28125 -0.59375 C 3.332031 -0.488281 3.394531 -0.394531 3.46875 -0.3125 C 3.550781 -0.238281 3.648438 -0.203125 3.765625 -0.203125 L 3.765625 0 Z M 1.265625 -10.5 C 1.265625 -10.769531 1.351562 -10.992188 1.53125 -11.171875 C 1.71875 -11.359375 1.941406 -11.453125 2.203125 -11.453125 C 2.472656 -11.453125 2.695312 -11.359375 2.875 -11.171875 C 3.0625 -10.992188 3.15625 -10.769531 3.15625 -10.5 C 3.15625 -10.238281 3.0625 -10.019531 2.875 -9.84375 C 2.695312 -9.675781 2.472656 -9.59375 2.203125 -9.59375 C 1.941406 -9.59375 1.71875 -9.675781 1.53125 -9.84375 C 1.351562 -10.019531 1.265625 -10.238281 1.265625 -10.5 Z M 1.265625 -10.5 "/></g></g><g style="fill:#02084b;fill-opacity:1;"><g transform="translate(188.462561, 211.211737)"><path style="stroke:none" d="M 6.140625 0 L 6.140625 -1.015625 L 6.046875 -0.921875 C 5.710938 -0.585938 5.328125 -0.328125 4.890625 -0.140625 C 4.460938 0.046875 3.945312 0.140625 3.34375 0.140625 C 2.875 0.140625 2.472656 0.0859375 2.140625 -0.015625 C 1.816406 -0.117188 1.546875 -0.265625 1.328125 -0.453125 C 1.117188 -0.648438 0.960938 -0.875 0.859375 -1.125 C 0.765625 -1.382812 0.71875 -1.648438 0.71875 -1.921875 C 0.71875 -2.378906 0.835938 -2.78125 1.078125 -3.125 C 1.328125 -3.46875 1.679688 -3.769531 2.140625 -4.03125 C 2.609375 -4.300781 3.175781 -4.546875 3.84375 -4.765625 C 4.519531 -4.984375 5.285156 -5.195312 6.140625 -5.40625 C 6.117188 -5.925781 6.015625 -6.34375 5.828125 -6.65625 C 5.640625 -6.976562 5.421875 -7.226562 5.171875 -7.40625 C 4.921875 -7.582031 4.65625 -7.703125 4.375 -7.765625 C 4.09375 -7.828125 3.851562 -7.859375 3.65625 -7.859375 C 3.3125 -7.859375 3.007812 -7.800781 2.75 -7.6875 C 2.488281 -7.582031 2.265625 -7.445312 2.078125 -7.28125 C 1.890625 -7.125 1.726562 -6.945312 1.59375 -6.75 C 1.457031 -6.5625 1.347656 -6.378906 1.265625 -6.203125 L 1.09375 -6.203125 L 1.09375 -7.65625 C 1.195312 -7.664062 1.296875 -7.695312 1.390625 -7.75 C 1.484375 -7.8125 1.597656 -7.867188 1.734375 -7.921875 C 1.929688 -7.992188 2.203125 -8.109375 2.546875 -8.265625 C 2.890625 -8.421875 3.375 -8.5 4 -8.5 C 4.726562 -8.5 5.316406 -8.40625 5.765625 -8.21875 C 6.210938 -8.03125 6.5625 -7.78125 6.8125 -7.46875 C 7.0625 -7.164062 7.222656 -6.816406 7.296875 -6.421875 C 7.378906 -6.035156 7.421875 -5.640625 7.421875 -5.234375 L 7.421875 -1.296875 C 7.421875 -1.023438 7.476562 -0.773438 7.59375 -0.546875 C 7.71875 -0.316406 7.878906 -0.203125 8.078125 -0.203125 L 8.078125 0 Z M 6.140625 -1.890625 L 6.140625 -4.734375 L 5.953125 -4.6875 C 5.628906 -4.613281 5.238281 -4.507812 4.78125 -4.375 C 4.320312 -4.238281 3.882812 -4.066406 3.46875 -3.859375 C 3.0625 -3.648438 2.710938 -3.398438 2.421875 -3.109375 C 2.128906 -2.816406 1.984375 -2.476562 1.984375 -2.09375 C 1.984375 -1.664062 2.15625 -1.3125 2.5 -1.03125 C 2.84375 -0.75 3.296875 -0.609375 3.859375 -0.609375 C 4.296875 -0.609375 4.679688 -0.703125 5.015625 -0.890625 C 5.347656 -1.085938 5.648438 -1.34375 5.921875 -1.65625 Z M 6.140625 -1.890625 "/></g></g><g style="fill:#02084b;fill-opacity:1;"><g transform="translate(196.141355, 211.211737)"><path style="stroke:none" d=""/></g></g><g style="fill:#02084b;fill-opacity:1;"><g transform="translate(199.900839, 211.211737)"><path style="stroke:none" d="M 1.984375 -4.015625 C 2.035156 -3.554688 2.144531 -3.113281 2.3125 -2.6875 C 2.488281 -2.269531 2.71875 -1.898438 3 -1.578125 C 3.289062 -1.265625 3.640625 -1.007812 4.046875 -0.8125 C 4.460938 -0.625 4.941406 -0.53125 5.484375 -0.53125 C 5.773438 -0.53125 6.082031 -0.570312 6.40625 -0.65625 C 6.738281 -0.75 7.039062 -0.875 7.3125 -1.03125 C 7.59375 -1.1875 7.84375 -1.378906 8.0625 -1.609375 C 8.28125 -1.847656 8.429688 -2.113281 8.515625 -2.40625 L 8.6875 -2.40625 L 8.6875 -0.921875 C 8.613281 -0.921875 8.523438 -0.890625 8.421875 -0.828125 C 8.328125 -0.773438 8.210938 -0.710938 8.078125 -0.640625 C 7.804688 -0.472656 7.445312 -0.300781 7 -0.125 C 6.550781 0.0507812 5.957031 0.140625 5.21875 0.140625 C 4.613281 0.140625 4.039062 0.0546875 3.5 -0.109375 C 2.96875 -0.285156 2.492188 -0.550781 2.078125 -0.90625 C 1.671875 -1.269531 1.34375 -1.726562 1.09375 -2.28125 C 0.851562 -2.84375 0.734375 -3.507812 0.734375 -4.28125 C 0.734375 -4.769531 0.816406 -5.265625 0.984375 -5.765625 C 1.148438 -6.273438 1.398438 -6.726562 1.734375 -7.125 C 2.078125 -7.53125 2.515625 -7.859375 3.046875 -8.109375 C 3.578125 -8.367188 4.210938 -8.5 4.953125 -8.5 C 5.617188 -8.5 6.195312 -8.382812 6.6875 -8.15625 C 7.1875 -7.925781 7.597656 -7.613281 7.921875 -7.21875 C 8.242188 -6.820312 8.484375 -6.351562 8.640625 -5.8125 C 8.804688 -5.269531 8.890625 -4.671875 8.890625 -4.015625 Z M 4.875 -7.84375 C 4.40625 -7.84375 4 -7.75 3.65625 -7.5625 C 3.320312 -7.375 3.035156 -7.132812 2.796875 -6.84375 C 2.566406 -6.550781 2.382812 -6.21875 2.25 -5.84375 C 2.113281 -5.476562 2.023438 -5.109375 1.984375 -4.734375 L 7.65625 -4.734375 C 7.644531 -5.117188 7.578125 -5.492188 7.453125 -5.859375 C 7.328125 -6.234375 7.148438 -6.566406 6.921875 -6.859375 C 6.691406 -7.148438 6.40625 -7.382812 6.0625 -7.5625 C 5.71875 -7.75 5.320312 -7.84375 4.875 -7.84375 Z M 4.875 -7.84375 "/></g></g><g style="fill:#02084b;fill-opacity:1;"><g transform="translate(208.136688, 211.211737)"><path style="stroke:none" d=""/></g></g><g style="fill:#02084b;fill-opacity:1;"><g transform="translate(211.896172, 211.211737)"><path style="stroke:none" d="M 7.890625 -12.609375 C 6.910156 -12.609375 6.054688 -12.429688 5.328125 -12.078125 C 4.609375 -11.734375 4.007812 -11.273438 3.53125 -10.703125 C 3.0625 -10.140625 2.707031 -9.503906 2.46875 -8.796875 C 2.238281 -8.097656 2.125 -7.40625 2.125 -6.71875 C 2.125 -5.9375 2.273438 -5.171875 2.578125 -4.421875 C 2.890625 -3.671875 3.3125 -3.007812 3.84375 -2.4375 C 4.382812 -1.863281 5.007812 -1.398438 5.71875 -1.046875 C 6.4375 -0.691406 7.21875 -0.515625 8.0625 -0.515625 C 8.289062 -0.515625 8.566406 -0.539062 8.890625 -0.59375 C 9.222656 -0.644531 9.546875 -0.75 9.859375 -0.90625 C 10.179688 -1.0625 10.476562 -1.273438 10.75 -1.546875 C 11.019531 -1.828125 11.226562 -2.191406 11.375 -2.640625 L 11.578125 -2.640625 L 11.578125 -0.4375 C 11.378906 -0.4375 11.171875 -0.410156 10.953125 -0.359375 C 10.734375 -0.304688 10.488281 -0.242188 10.21875 -0.171875 C 9.875 -0.0859375 9.492188 -0.00390625 9.078125 0.078125 C 8.660156 0.160156 8.21875 0.203125 7.75 0.203125 C 6.601562 0.203125 5.59375 0.00390625 4.71875 -0.390625 C 3.84375 -0.796875 3.113281 -1.316406 2.53125 -1.953125 C 1.945312 -2.585938 1.507812 -3.304688 1.21875 -4.109375 C 0.925781 -4.910156 0.78125 -5.722656 0.78125 -6.546875 C 0.78125 -7.367188 0.925781 -8.179688 1.21875 -8.984375 C 1.507812 -9.796875 1.953125 -10.523438 2.546875 -11.171875 C 3.140625 -11.816406 3.882812 -12.335938 4.78125 -12.734375 C 5.6875 -13.128906 6.75 -13.328125 7.96875 -13.328125 C 8.40625 -13.328125 8.800781 -13.285156 9.15625 -13.203125 C 9.507812 -13.128906 9.828125 -13.050781 10.109375 -12.96875 C 10.304688 -12.90625 10.488281 -12.851562 10.65625 -12.8125 C 10.820312 -12.78125 10.984375 -12.765625 11.140625 -12.765625 L 11.140625 -10.5625 L 10.9375 -10.5625 C 10.863281 -10.96875 10.71875 -11.304688 10.5 -11.578125 C 10.289062 -11.859375 10.039062 -12.070312 9.75 -12.21875 C 9.46875 -12.363281 9.164062 -12.460938 8.84375 -12.515625 C 8.519531 -12.578125 8.203125 -12.609375 7.890625 -12.609375 Z M 7.890625 -12.609375 "/></g></g><g style="fill:#02084b;fill-opacity:1;"><g transform="translate(222.877526, 211.211737)"><path style="stroke:none" d="M 5.078125 0.140625 C 4.410156 0.140625 3.8125 0.03125 3.28125 -0.1875 C 2.75 -0.40625 2.296875 -0.703125 1.921875 -1.078125 C 1.546875 -1.460938 1.253906 -1.910156 1.046875 -2.421875 C 0.835938 -2.941406 0.734375 -3.507812 0.734375 -4.125 C 0.734375 -4.769531 0.84375 -5.359375 1.0625 -5.890625 C 1.289062 -6.429688 1.601562 -6.894531 2 -7.28125 C 2.40625 -7.664062 2.878906 -7.960938 3.421875 -8.171875 C 3.960938 -8.390625 4.550781 -8.5 5.1875 -8.5 C 5.820312 -8.5 6.40625 -8.394531 6.9375 -8.1875 C 7.46875 -7.976562 7.925781 -7.6875 8.3125 -7.3125 C 8.695312 -6.945312 8.992188 -6.507812 9.203125 -6 C 9.421875 -5.488281 9.53125 -4.925781 9.53125 -4.3125 C 9.53125 -3.75 9.429688 -3.195312 9.234375 -2.65625 C 9.046875 -2.113281 8.757812 -1.632812 8.375 -1.21875 C 8 -0.8125 7.535156 -0.484375 6.984375 -0.234375 C 6.441406 0.015625 5.804688 0.140625 5.078125 0.140625 Z M 4.953125 -7.84375 C 4.472656 -7.8125 4.050781 -7.691406 3.6875 -7.484375 C 3.320312 -7.285156 3.015625 -7.019531 2.765625 -6.6875 C 2.523438 -6.363281 2.34375 -5.992188 2.21875 -5.578125 C 2.09375 -5.171875 2.03125 -4.757812 2.03125 -4.34375 C 2.03125 -3.84375 2.101562 -3.363281 2.25 -2.90625 C 2.40625 -2.457031 2.625 -2.050781 2.90625 -1.6875 C 3.195312 -1.332031 3.539062 -1.046875 3.9375 -0.828125 C 4.332031 -0.617188 4.773438 -0.515625 5.265625 -0.515625 C 5.753906 -0.515625 6.1875 -0.617188 6.5625 -0.828125 C 6.945312 -1.046875 7.265625 -1.320312 7.515625 -1.65625 C 7.765625 -2 7.953125 -2.378906 8.078125 -2.796875 C 8.210938 -3.222656 8.28125 -3.648438 8.28125 -4.078125 C 8.28125 -4.515625 8.210938 -4.953125 8.078125 -5.390625 C 7.941406 -5.835938 7.734375 -6.242188 7.453125 -6.609375 C 7.179688 -6.972656 6.832031 -7.269531 6.40625 -7.5 C 5.988281 -7.726562 5.503906 -7.84375 4.953125 -7.84375 Z M 4.953125 -7.84375 "/></g></g><g style="fill:#02084b;fill-opacity:1;"><g transform="translate(231.869393, 211.211737)"><path style="stroke:none" d="M 8.890625 -1.296875 C 8.890625 -1.191406 8.898438 -1.070312 8.921875 -0.9375 C 8.953125 -0.8125 9 -0.695312 9.0625 -0.59375 C 9.125 -0.488281 9.191406 -0.394531 9.265625 -0.3125 C 9.335938 -0.238281 9.425781 -0.203125 9.53125 -0.203125 L 9.53125 0 L 6.96875 0 L 6.96875 -0.203125 C 7.050781 -0.203125 7.132812 -0.238281 7.21875 -0.3125 C 7.300781 -0.394531 7.367188 -0.488281 7.421875 -0.59375 C 7.484375 -0.695312 7.523438 -0.8125 7.546875 -0.9375 C 7.578125 -1.070312 7.59375 -1.191406 7.59375 -1.296875 L 7.59375 -5 C 7.59375 -5.46875 7.523438 -5.878906 7.390625 -6.234375 C 7.265625 -6.597656 7.085938 -6.898438 6.859375 -7.140625 C 6.640625 -7.378906 6.382812 -7.554688 6.09375 -7.671875 C 5.8125 -7.785156 5.523438 -7.84375 5.234375 -7.84375 C 4.941406 -7.84375 4.648438 -7.78125 4.359375 -7.65625 C 4.078125 -7.539062 3.828125 -7.382812 3.609375 -7.1875 C 3.390625 -7 3.207031 -6.773438 3.0625 -6.515625 C 2.925781 -6.253906 2.859375 -5.984375 2.859375 -5.703125 L 2.859375 -1.296875 C 2.859375 -1.191406 2.867188 -1.070312 2.890625 -0.9375 C 2.921875 -0.8125 2.96875 -0.695312 3.03125 -0.59375 C 3.09375 -0.488281 3.160156 -0.394531 3.234375 -0.3125 C 3.304688 -0.238281 3.394531 -0.203125 3.5 -0.203125 L 3.5 0 L 0.921875 0 L 0.921875 -0.203125 C 1.003906 -0.203125 1.085938 -0.238281 1.171875 -0.3125 C 1.253906 -0.394531 1.320312 -0.488281 1.375 -0.59375 C 1.4375 -0.695312 1.476562 -0.8125 1.5 -0.9375 C 1.53125 -1.070312 1.546875 -1.191406 1.546875 -1.296875 L 1.546875 -6.78125 C 1.546875 -7.007812 1.515625 -7.222656 1.453125 -7.421875 C 1.390625 -7.628906 1.195312 -7.738281 0.875 -7.75 L 0.875 -7.9375 L 2.859375 -8.578125 L 2.859375 -7.484375 C 2.953125 -7.585938 3.070312 -7.703125 3.21875 -7.828125 C 3.363281 -7.953125 3.539062 -8.070312 3.75 -8.1875 C 3.957031 -8.300781 4.195312 -8.394531 4.46875 -8.46875 C 4.738281 -8.539062 5.0625 -8.578125 5.4375 -8.578125 C 6.050781 -8.578125 6.578125 -8.46875 7.015625 -8.25 C 7.453125 -8.039062 7.8125 -7.765625 8.09375 -7.421875 C 8.375 -7.085938 8.578125 -6.71875 8.703125 -6.3125 C 8.828125 -5.90625 8.890625 -5.507812 8.890625 -5.125 Z M 8.890625 -1.296875 "/></g></g><g style="fill:#02084b;fill-opacity:1;"><g transform="translate(241.040313, 211.211737)"><path style="stroke:none" d="M 7.359375 -2.265625 C 7.359375 -1.921875 7.269531 -1.601562 7.09375 -1.3125 C 6.925781 -1.019531 6.691406 -0.765625 6.390625 -0.546875 C 6.097656 -0.328125 5.75 -0.15625 5.34375 -0.03125 C 4.945312 0.09375 4.519531 0.15625 4.0625 0.15625 C 3.488281 0.15625 3.019531 0.0820312 2.65625 -0.0625 C 2.300781 -0.21875 2 -0.375 1.75 -0.53125 C 1.570312 -0.644531 1.410156 -0.738281 1.265625 -0.8125 C 1.117188 -0.882812 0.960938 -0.921875 0.796875 -0.921875 L 0.796875 -2.421875 L 1 -2.421875 C 1.03125 -2.234375 1.140625 -2.03125 1.328125 -1.8125 C 1.523438 -1.59375 1.757812 -1.390625 2.03125 -1.203125 C 2.3125 -1.023438 2.613281 -0.875 2.9375 -0.75 C 3.257812 -0.625 3.585938 -0.5625 3.921875 -0.5625 C 4.160156 -0.5625 4.40625 -0.585938 4.65625 -0.640625 C 4.90625 -0.691406 5.132812 -0.773438 5.34375 -0.890625 C 5.550781 -1.015625 5.722656 -1.164062 5.859375 -1.34375 C 5.992188 -1.519531 6.0625 -1.734375 6.0625 -1.984375 C 6.0625 -2.234375 5.988281 -2.453125 5.84375 -2.640625 C 5.695312 -2.828125 5.507812 -2.988281 5.28125 -3.125 C 5.0625 -3.269531 4.804688 -3.394531 4.515625 -3.5 C 4.222656 -3.601562 3.929688 -3.703125 3.640625 -3.796875 C 3.296875 -3.898438 2.945312 -4.019531 2.59375 -4.15625 C 2.238281 -4.289062 1.921875 -4.445312 1.640625 -4.625 C 1.367188 -4.800781 1.144531 -5.019531 0.96875 -5.28125 C 0.800781 -5.539062 0.71875 -5.847656 0.71875 -6.203125 C 0.71875 -6.503906 0.769531 -6.796875 0.875 -7.078125 C 0.988281 -7.359375 1.175781 -7.597656 1.4375 -7.796875 C 1.695312 -8.003906 2.03125 -8.171875 2.4375 -8.296875 C 2.851562 -8.429688 3.351562 -8.5 3.9375 -8.5 C 4.457031 -8.5 4.859375 -8.453125 5.140625 -8.359375 C 5.421875 -8.273438 5.65625 -8.1875 5.84375 -8.09375 C 5.96875 -8.03125 6.085938 -7.976562 6.203125 -7.9375 C 6.328125 -7.90625 6.460938 -7.890625 6.609375 -7.890625 L 6.609375 -6.5 L 6.4375 -6.5 C 6.207031 -6.9375 5.84375 -7.269531 5.34375 -7.5 C 4.851562 -7.726562 4.351562 -7.84375 3.84375 -7.84375 C 3.507812 -7.84375 3.222656 -7.796875 2.984375 -7.703125 C 2.742188 -7.617188 2.546875 -7.515625 2.390625 -7.390625 C 2.242188 -7.265625 2.132812 -7.117188 2.0625 -6.953125 C 1.988281 -6.796875 1.953125 -6.640625 1.953125 -6.484375 C 1.953125 -6.253906 2.015625 -6.0625 2.140625 -5.90625 C 2.265625 -5.75 2.4375 -5.609375 2.65625 -5.484375 C 2.875 -5.367188 3.117188 -5.257812 3.390625 -5.15625 C 3.660156 -5.050781 3.945312 -4.953125 4.25 -4.859375 C 4.625 -4.734375 4.992188 -4.597656 5.359375 -4.453125 C 5.734375 -4.316406 6.066406 -4.148438 6.359375 -3.953125 C 6.648438 -3.753906 6.890625 -3.519531 7.078125 -3.25 C 7.265625 -2.976562 7.359375 -2.648438 7.359375 -2.265625 Z M 7.359375 -2.265625 "/></g></g><g style="fill:#02084b;fill-opacity:1;"><g transform="translate(247.803946, 211.211737)"><path style="stroke:none" d="M 8.765625 -1.296875 C 8.765625 -1.203125 8.773438 -1.09375 8.796875 -0.96875 C 8.828125 -0.84375 8.863281 -0.722656 8.90625 -0.609375 C 8.957031 -0.492188 9.023438 -0.394531 9.109375 -0.3125 C 9.191406 -0.238281 9.285156 -0.203125 9.390625 -0.203125 L 9.390625 0 L 7.453125 0 L 7.453125 -1.09375 C 7.253906 -0.800781 6.960938 -0.515625 6.578125 -0.234375 C 6.191406 0.0351562 5.695312 0.171875 5.09375 0.171875 C 4.320312 0.171875 3.707031 0.0390625 3.25 -0.21875 C 2.800781 -0.476562 2.457031 -0.8125 2.21875 -1.21875 C 1.988281 -1.632812 1.835938 -2.082031 1.765625 -2.5625 C 1.703125 -3.050781 1.671875 -3.507812 1.671875 -3.9375 L 1.671875 -6.78125 C 1.671875 -6.90625 1.664062 -7.019531 1.65625 -7.125 C 1.65625 -7.238281 1.628906 -7.34375 1.578125 -7.4375 C 1.535156 -7.53125 1.46875 -7.601562 1.375 -7.65625 C 1.28125 -7.71875 1.144531 -7.75 0.96875 -7.75 L 0.96875 -7.9375 L 2.984375 -8.578125 L 2.984375 -3.5 C 2.984375 -2.488281 3.203125 -1.742188 3.640625 -1.265625 C 4.078125 -0.796875 4.613281 -0.5625 5.25 -0.5625 C 5.59375 -0.5625 5.898438 -0.632812 6.171875 -0.78125 C 6.441406 -0.9375 6.671875 -1.117188 6.859375 -1.328125 C 7.054688 -1.546875 7.203125 -1.765625 7.296875 -1.984375 C 7.398438 -2.210938 7.453125 -2.398438 7.453125 -2.546875 L 7.453125 -6.78125 C 7.453125 -6.90625 7.445312 -7.019531 7.4375 -7.125 C 7.4375 -7.238281 7.410156 -7.34375 7.359375 -7.4375 C 7.316406 -7.53125 7.25 -7.601562 7.15625 -7.65625 C 7.0625 -7.71875 6.929688 -7.75 6.765625 -7.75 L 6.765625 -7.9375 L 8.765625 -8.578125 Z M 8.765625 -1.296875 "/></g></g><g style="fill:#02084b;fill-opacity:1;"><g transform="translate(256.815711, 211.211737)"><path style="stroke:none" d="M 0.96875 0 L 0.96875 -0.203125 C 1.082031 -0.203125 1.175781 -0.238281 1.25 -0.3125 C 1.332031 -0.394531 1.398438 -0.488281 1.453125 -0.59375 C 1.515625 -0.695312 1.554688 -0.8125 1.578125 -0.9375 C 1.609375 -1.070312 1.625 -1.191406 1.625 -1.296875 L 1.625 -11.484375 C 1.625 -11.703125 1.59375 -11.910156 1.53125 -12.109375 C 1.46875 -12.304688 1.269531 -12.414062 0.9375 -12.4375 L 0.9375 -12.625 L 2.9375 -13.25 L 2.9375 -1.296875 C 2.9375 -1.191406 2.945312 -1.070312 2.96875 -0.9375 C 3 -0.8125 3.046875 -0.695312 3.109375 -0.59375 C 3.171875 -0.488281 3.238281 -0.394531 3.3125 -0.3125 C 3.382812 -0.238281 3.472656 -0.203125 3.578125 -0.203125 L 3.578125 0 Z M 0.96875 0 "/></g></g><g style="fill:#02084b;fill-opacity:1;"><g transform="translate(259.998243, 211.211737)"><path style="stroke:none" d="M 2.84375 -7.671875 L 2.84375 -2.890625 C 2.84375 -2.535156 2.847656 -2.21875 2.859375 -1.9375 C 2.878906 -1.664062 2.914062 -1.4375 2.96875 -1.25 C 3.019531 -1.0625 3.097656 -0.914062 3.203125 -0.8125 C 3.304688 -0.71875 3.453125 -0.671875 3.640625 -0.671875 C 3.921875 -0.671875 4.179688 -0.800781 4.421875 -1.0625 C 4.671875 -1.332031 4.828125 -1.65625 4.890625 -2.03125 L 5.078125 -2.03125 L 5.078125 -0.578125 C 4.953125 -0.578125 4.851562 -0.535156 4.78125 -0.453125 C 4.664062 -0.359375 4.507812 -0.257812 4.3125 -0.15625 C 4.125 -0.0507812 3.84375 0 3.46875 0 C 2.988281 0 2.613281 -0.09375 2.34375 -0.28125 C 2.082031 -0.46875 1.890625 -0.710938 1.765625 -1.015625 C 1.648438 -1.316406 1.582031 -1.648438 1.5625 -2.015625 C 1.539062 -2.390625 1.53125 -2.769531 1.53125 -3.15625 L 1.53125 -7.671875 L 0.421875 -7.671875 L 0.421875 -8.359375 L 1.53125 -8.359375 L 1.53125 -10.125 C 1.53125 -10.351562 1.5 -10.5625 1.4375 -10.75 C 1.382812 -10.945312 1.191406 -11.050781 0.859375 -11.0625 L 0.859375 -11.265625 L 2.84375 -11.890625 L 2.84375 -8.359375 L 5.078125 -8.359375 L 5.078125 -7.671875 Z M 2.84375 -7.671875 "/></g></g><g style="fill:#02084b;fill-opacity:1;"><g transform="translate(264.255102, 211.211737)"><path style="stroke:none" d="M 5.078125 0.140625 C 4.410156 0.140625 3.8125 0.03125 3.28125 -0.1875 C 2.75 -0.40625 2.296875 -0.703125 1.921875 -1.078125 C 1.546875 -1.460938 1.253906 -1.910156 1.046875 -2.421875 C 0.835938 -2.941406 0.734375 -3.507812 0.734375 -4.125 C 0.734375 -4.769531 0.84375 -5.359375 1.0625 -5.890625 C 1.289062 -6.429688 1.601562 -6.894531 2 -7.28125 C 2.40625 -7.664062 2.878906 -7.960938 3.421875 -8.171875 C 3.960938 -8.390625 4.550781 -8.5 5.1875 -8.5 C 5.820312 -8.5 6.40625 -8.394531 6.9375 -8.1875 C 7.46875 -7.976562 7.925781 -7.6875 8.3125 -7.3125 C 8.695312 -6.945312 8.992188 -6.507812 9.203125 -6 C 9.421875 -5.488281 9.53125 -4.925781 9.53125 -4.3125 C 9.53125 -3.75 9.429688 -3.195312 9.234375 -2.65625 C 9.046875 -2.113281 8.757812 -1.632812 8.375 -1.21875 C 8 -0.8125 7.535156 -0.484375 6.984375 -0.234375 C 6.441406 0.015625 5.804688 0.140625 5.078125 0.140625 Z M 4.953125 -7.84375 C 4.472656 -7.8125 4.050781 -7.691406 3.6875 -7.484375 C 3.320312 -7.285156 3.015625 -7.019531 2.765625 -6.6875 C 2.523438 -6.363281 2.34375 -5.992188 2.21875 -5.578125 C 2.09375 -5.171875 2.03125 -4.757812 2.03125 -4.34375 C 2.03125 -3.84375 2.101562 -3.363281 2.25 -2.90625 C 2.40625 -2.457031 2.625 -2.050781 2.90625 -1.6875 C 3.195312 -1.332031 3.539062 -1.046875 3.9375 -0.828125 C 4.332031 -0.617188 4.773438 -0.515625 5.265625 -0.515625 C 5.753906 -0.515625 6.1875 -0.617188 6.5625 -0.828125 C 6.945312 -1.046875 7.265625 -1.320312 7.515625 -1.65625 C 7.765625 -2 7.953125 -2.378906 8.078125 -2.796875 C 8.210938 -3.222656 8.28125 -3.648438 8.28125 -4.078125 C 8.28125 -4.515625 8.210938 -4.953125 8.078125 -5.390625 C 7.941406 -5.835938 7.734375 -6.242188 7.453125 -6.609375 C 7.179688 -6.972656 6.832031 -7.269531 6.40625 -7.5 C 5.988281 -7.726562 5.503906 -7.84375 4.953125 -7.84375 Z M 4.953125 -7.84375 "/></g></g><g style="fill:#02084b;fill-opacity:1;"><g transform="translate(273.246969, 211.211737)"><path style="stroke:none" d="M 5.75 -6.90625 C 5.59375 -7.164062 5.425781 -7.328125 5.25 -7.390625 C 5.082031 -7.460938 4.882812 -7.5 4.65625 -7.5 C 4.507812 -7.5 4.351562 -7.460938 4.1875 -7.390625 C 4.019531 -7.328125 3.859375 -7.242188 3.703125 -7.140625 C 3.546875 -7.035156 3.390625 -6.921875 3.234375 -6.796875 C 3.078125 -6.671875 2.945312 -6.550781 2.84375 -6.4375 L 2.84375 -1.265625 C 2.84375 -1.160156 2.851562 -1.046875 2.875 -0.921875 C 2.90625 -0.804688 2.953125 -0.691406 3.015625 -0.578125 C 3.078125 -0.472656 3.144531 -0.382812 3.21875 -0.3125 C 3.289062 -0.238281 3.378906 -0.203125 3.484375 -0.203125 L 3.484375 0 L 0.890625 0 L 0.890625 -0.203125 C 0.984375 -0.203125 1.066406 -0.238281 1.140625 -0.3125 C 1.222656 -0.382812 1.296875 -0.472656 1.359375 -0.578125 C 1.421875 -0.691406 1.460938 -0.804688 1.484375 -0.921875 C 1.515625 -1.046875 1.53125 -1.160156 1.53125 -1.265625 L 1.53125 -6.828125 C 1.53125 -7.003906 1.46875 -7.1875 1.34375 -7.375 C 1.226562 -7.5625 1.054688 -7.679688 0.828125 -7.734375 L 0.828125 -7.890625 L 2.84375 -8.5 L 2.84375 -7.296875 C 2.957031 -7.441406 3.082031 -7.582031 3.21875 -7.71875 C 3.351562 -7.863281 3.503906 -7.992188 3.671875 -8.109375 C 3.835938 -8.222656 4.019531 -8.316406 4.21875 -8.390625 C 4.414062 -8.460938 4.644531 -8.5 4.90625 -8.5 C 5.09375 -8.5 5.332031 -8.457031 5.625 -8.375 C 5.914062 -8.289062 6.15625 -8.203125 6.34375 -8.109375 Z M 5.75 -6.90625 "/></g></g><g style="fill:#02084b;fill-opacity:1;"><g transform="translate(278.538375, 211.211737)"><path style="stroke:none" d="M 1.171875 0 L 1.171875 -0.203125 C 1.273438 -0.203125 1.367188 -0.238281 1.453125 -0.3125 C 1.535156 -0.394531 1.601562 -0.488281 1.65625 -0.59375 C 1.707031 -0.695312 1.742188 -0.8125 1.765625 -0.9375 C 1.796875 -1.070312 1.8125 -1.191406 1.8125 -1.296875 L 1.8125 -6.796875 C 1.8125 -7.023438 1.773438 -7.238281 1.703125 -7.4375 C 1.640625 -7.644531 1.453125 -7.757812 1.140625 -7.78125 L 1.140625 -7.953125 L 3.125 -8.59375 L 3.125 -1.296875 C 3.125 -1.191406 3.132812 -1.070312 3.15625 -0.9375 C 3.1875 -0.8125 3.226562 -0.695312 3.28125 -0.59375 C 3.332031 -0.488281 3.394531 -0.394531 3.46875 -0.3125 C 3.550781 -0.238281 3.648438 -0.203125 3.765625 -0.203125 L 3.765625 0 Z M 1.265625 -10.5 C 1.265625 -10.769531 1.351562 -10.992188 1.53125 -11.171875 C 1.71875 -11.359375 1.941406 -11.453125 2.203125 -11.453125 C 2.472656 -11.453125 2.695312 -11.359375 2.875 -11.171875 C 3.0625 -10.992188 3.15625 -10.769531 3.15625 -10.5 C 3.15625 -10.238281 3.0625 -10.019531 2.875 -9.84375 C 2.695312 -9.675781 2.472656 -9.59375 2.203125 -9.59375 C 1.941406 -9.59375 1.71875 -9.675781 1.53125 -9.84375 C 1.351562 -10.019531 1.265625 -10.238281 1.265625 -10.5 Z M 1.265625 -10.5 "/></g></g><g style="fill:#02084b;fill-opacity:1;"><g transform="translate(282.118807, 211.211737)"><path style="stroke:none" d="M 6.140625 0 L 6.140625 -1.015625 L 6.046875 -0.921875 C 5.710938 -0.585938 5.328125 -0.328125 4.890625 -0.140625 C 4.460938 0.046875 3.945312 0.140625 3.34375 0.140625 C 2.875 0.140625 2.472656 0.0859375 2.140625 -0.015625 C 1.816406 -0.117188 1.546875 -0.265625 1.328125 -0.453125 C 1.117188 -0.648438 0.960938 -0.875 0.859375 -1.125 C 0.765625 -1.382812 0.71875 -1.648438 0.71875 -1.921875 C 0.71875 -2.378906 0.835938 -2.78125 1.078125 -3.125 C 1.328125 -3.46875 1.679688 -3.769531 2.140625 -4.03125 C 2.609375 -4.300781 3.175781 -4.546875 3.84375 -4.765625 C 4.519531 -4.984375 5.285156 -5.195312 6.140625 -5.40625 C 6.117188 -5.925781 6.015625 -6.34375 5.828125 -6.65625 C 5.640625 -6.976562 5.421875 -7.226562 5.171875 -7.40625 C 4.921875 -7.582031 4.65625 -7.703125 4.375 -7.765625 C 4.09375 -7.828125 3.851562 -7.859375 3.65625 -7.859375 C 3.3125 -7.859375 3.007812 -7.800781 2.75 -7.6875 C 2.488281 -7.582031 2.265625 -7.445312 2.078125 -7.28125 C 1.890625 -7.125 1.726562 -6.945312 1.59375 -6.75 C 1.457031 -6.5625 1.347656 -6.378906 1.265625 -6.203125 L 1.09375 -6.203125 L 1.09375 -7.65625 C 1.195312 -7.664062 1.296875 -7.695312 1.390625 -7.75 C 1.484375 -7.8125 1.597656 -7.867188 1.734375 -7.921875 C 1.929688 -7.992188 2.203125 -8.109375 2.546875 -8.265625 C 2.890625 -8.421875 3.375 -8.5 4 -8.5 C 4.726562 -8.5 5.316406 -8.40625 5.765625 -8.21875 C 6.210938 -8.03125 6.5625 -7.78125 6.8125 -7.46875 C 7.0625 -7.164062 7.222656 -6.816406 7.296875 -6.421875 C 7.378906 -6.035156 7.421875 -5.640625 7.421875 -5.234375 L 7.421875 -1.296875 C 7.421875 -1.023438 7.476562 -0.773438 7.59375 -0.546875 C 7.71875 -0.316406 7.878906 -0.203125 8.078125 -0.203125 L 8.078125 0 Z M 6.140625 -1.890625 L 6.140625 -4.734375 L 5.953125 -4.6875 C 5.628906 -4.613281 5.238281 -4.507812 4.78125 -4.375 C 4.320312 -4.238281 3.882812 -4.066406 3.46875 -3.859375 C 3.0625 -3.648438 2.710938 -3.398438 2.421875 -3.109375 C 2.128906 -2.816406 1.984375 -2.476562 1.984375 -2.09375 C 1.984375 -1.664062 2.15625 -1.3125 2.5 -1.03125 C 2.84375 -0.75 3.296875 -0.609375 3.859375 -0.609375 C 4.296875 -0.609375 4.679688 -0.703125 5.015625 -0.890625 C 5.347656 -1.085938 5.648438 -1.34375 5.921875 -1.65625 Z M 6.140625 -1.890625 "/></g></g><g style="fill:#02084b;fill-opacity:1;"><g transform="translate(289.7976, 211.211737)"><path style="stroke:none" d=""/></g></g><g style="fill:#02084b;fill-opacity:1;"><g transform="translate(293.557085, 211.211737)"><path style="stroke:none" d="M 1.484375 -13.125 L 4.359375 -13.125 L 4.359375 -12.921875 L 4.25 -12.921875 C 4.144531 -12.921875 4.050781 -12.882812 3.96875 -12.8125 C 3.894531 -12.738281 3.828125 -12.644531 3.765625 -12.53125 C 3.710938 -12.425781 3.664062 -12.3125 3.625 -12.1875 C 3.59375 -12.070312 3.578125 -11.96875 3.578125 -11.875 L 3.578125 -0.796875 C 3.578125 -0.367188 3.523438 0.0195312 3.421875 0.375 C 3.316406 0.738281 3.171875 1.070312 2.984375 1.375 C 2.804688 1.6875 2.609375 1.972656 2.390625 2.234375 C 2.171875 2.492188 1.941406 2.726562 1.703125 2.9375 C 1.160156 3.4375 0.539062 3.847656 -0.15625 4.171875 L -0.265625 4.015625 C 0.203125 3.679688 0.613281 3.289062 0.96875 2.84375 C 1.28125 2.457031 1.566406 1.984375 1.828125 1.421875 C 2.097656 0.867188 2.234375 0.226562 2.234375 -0.5 L 2.234375 -11.875 C 2.234375 -11.96875 2.21875 -12.070312 2.1875 -12.1875 C 2.15625 -12.3125 2.109375 -12.425781 2.046875 -12.53125 C 1.992188 -12.644531 1.925781 -12.738281 1.84375 -12.8125 C 1.769531 -12.882812 1.6875 -12.921875 1.59375 -12.921875 L 1.484375 -12.921875 Z M 1.484375 -13.125 "/></g></g><g style="fill:#02084b;fill-opacity:1;"><g transform="translate(297.515519, 211.211737)"><path style="stroke:none" d="M 8.765625 -1.296875 C 8.765625 -1.203125 8.773438 -1.09375 8.796875 -0.96875 C 8.828125 -0.84375 8.863281 -0.722656 8.90625 -0.609375 C 8.957031 -0.492188 9.023438 -0.394531 9.109375 -0.3125 C 9.191406 -0.238281 9.285156 -0.203125 9.390625 -0.203125 L 9.390625 0 L 7.453125 0 L 7.453125 -1.09375 C 7.253906 -0.800781 6.960938 -0.515625 6.578125 -0.234375 C 6.191406 0.0351562 5.695312 0.171875 5.09375 0.171875 C 4.320312 0.171875 3.707031 0.0390625 3.25 -0.21875 C 2.800781 -0.476562 2.457031 -0.8125 2.21875 -1.21875 C 1.988281 -1.632812 1.835938 -2.082031 1.765625 -2.5625 C 1.703125 -3.050781 1.671875 -3.507812 1.671875 -3.9375 L 1.671875 -6.78125 C 1.671875 -6.90625 1.664062 -7.019531 1.65625 -7.125 C 1.65625 -7.238281 1.628906 -7.34375 1.578125 -7.4375 C 1.535156 -7.53125 1.46875 -7.601562 1.375 -7.65625 C 1.28125 -7.71875 1.144531 -7.75 0.96875 -7.75 L 0.96875 -7.9375 L 2.984375 -8.578125 L 2.984375 -3.5 C 2.984375 -2.488281 3.203125 -1.742188 3.640625 -1.265625 C 4.078125 -0.796875 4.613281 -0.5625 5.25 -0.5625 C 5.59375 -0.5625 5.898438 -0.632812 6.171875 -0.78125 C 6.441406 -0.9375 6.671875 -1.117188 6.859375 -1.328125 C 7.054688 -1.546875 7.203125 -1.765625 7.296875 -1.984375 C 7.398438 -2.210938 7.453125 -2.398438 7.453125 -2.546875 L 7.453125 -6.78125 C 7.453125 -6.90625 7.445312 -7.019531 7.4375 -7.125 C 7.4375 -7.238281 7.410156 -7.34375 7.359375 -7.4375 C 7.316406 -7.53125 7.25 -7.601562 7.15625 -7.65625 C 7.0625 -7.71875 6.929688 -7.75 6.765625 -7.75 L 6.765625 -7.9375 L 8.765625 -8.578125 Z M 8.765625 -1.296875 "/></g></g><g style="fill:#02084b;fill-opacity:1;"><g transform="translate(306.527284, 211.211737)"><path style="stroke:none" d="M 5.75 -6.90625 C 5.59375 -7.164062 5.425781 -7.328125 5.25 -7.390625 C 5.082031 -7.460938 4.882812 -7.5 4.65625 -7.5 C 4.507812 -7.5 4.351562 -7.460938 4.1875 -7.390625 C 4.019531 -7.328125 3.859375 -7.242188 3.703125 -7.140625 C 3.546875 -7.035156 3.390625 -6.921875 3.234375 -6.796875 C 3.078125 -6.671875 2.945312 -6.550781 2.84375 -6.4375 L 2.84375 -1.265625 C 2.84375 -1.160156 2.851562 -1.046875 2.875 -0.921875 C 2.90625 -0.804688 2.953125 -0.691406 3.015625 -0.578125 C 3.078125 -0.472656 3.144531 -0.382812 3.21875 -0.3125 C 3.289062 -0.238281 3.378906 -0.203125 3.484375 -0.203125 L 3.484375 0 L 0.890625 0 L 0.890625 -0.203125 C 0.984375 -0.203125 1.066406 -0.238281 1.140625 -0.3125 C 1.222656 -0.382812 1.296875 -0.472656 1.359375 -0.578125 C 1.421875 -0.691406 1.460938 -0.804688 1.484375 -0.921875 C 1.515625 -1.046875 1.53125 -1.160156 1.53125 -1.265625 L 1.53125 -6.828125 C 1.53125 -7.003906 1.46875 -7.1875 1.34375 -7.375 C 1.226562 -7.5625 1.054688 -7.679688 0.828125 -7.734375 L 0.828125 -7.890625 L 2.84375 -8.5 L 2.84375 -7.296875 C 2.957031 -7.441406 3.082031 -7.582031 3.21875 -7.71875 C 3.351562 -7.863281 3.503906 -7.992188 3.671875 -8.109375 C 3.835938 -8.222656 4.019531 -8.316406 4.21875 -8.390625 C 4.414062 -8.460938 4.644531 -8.5 4.90625 -8.5 C 5.09375 -8.5 5.332031 -8.457031 5.625 -8.375 C 5.914062 -8.289062 6.15625 -8.203125 6.34375 -8.109375 Z M 5.75 -6.90625 "/></g></g><g style="fill:#02084b;fill-opacity:1;"><g transform="translate(311.81869, 211.211737)"><path style="stroke:none" d="M 1.21875 -0.046875 L 1.21875 -0.15625 C 1.320312 -0.164062 1.410156 -0.210938 1.484375 -0.296875 C 1.566406 -0.378906 1.632812 -0.476562 1.6875 -0.59375 C 1.738281 -0.71875 1.773438 -0.84375 1.796875 -0.96875 C 1.828125 -1.09375 1.84375 -1.203125 1.84375 -1.296875 L 1.84375 -6.796875 C 1.84375 -7.023438 1.804688 -7.242188 1.734375 -7.453125 C 1.660156 -7.671875 1.472656 -7.789062 1.171875 -7.8125 L 1.171875 -7.921875 L 3.078125 -8.546875 L 3.078125 -1.296875 C 3.078125 -1.203125 3.085938 -1.09375 3.109375 -0.96875 C 3.140625 -0.84375 3.179688 -0.71875 3.234375 -0.59375 C 3.296875 -0.476562 3.363281 -0.378906 3.4375 -0.296875 C 3.519531 -0.210938 3.613281 -0.164062 3.71875 -0.15625 L 3.71875 -0.046875 Z M 0.5 -8.90625 L 3.328125 -11.046875 L 3.84375 -10.140625 L 0.5625 -8.796875 Z M 0.5 -8.90625 "/></g></g><g style="fill:#02084b;fill-opacity:1;"><g transform="translate(315.399122, 211.211737)"><path style="stroke:none" d="M 7.21875 0 L 7.21875 -0.875 C 6.988281 -0.625 6.6875 -0.390625 6.3125 -0.171875 C 5.9375 0.0351562 5.460938 0.140625 4.890625 0.140625 C 4.191406 0.140625 3.578125 0.0195312 3.046875 -0.21875 C 2.523438 -0.46875 2.09375 -0.789062 1.75 -1.1875 C 1.40625 -1.59375 1.148438 -2.050781 0.984375 -2.5625 C 0.816406 -3.070312 0.734375 -3.597656 0.734375 -4.140625 C 0.734375 -4.671875 0.816406 -5.195312 0.984375 -5.71875 C 1.160156 -6.238281 1.421875 -6.703125 1.765625 -7.109375 C 2.109375 -7.523438 2.539062 -7.859375 3.0625 -8.109375 C 3.582031 -8.367188 4.179688 -8.5 4.859375 -8.5 C 5.304688 -8.5 5.75 -8.414062 6.1875 -8.25 C 6.625 -8.082031 6.96875 -7.863281 7.21875 -7.59375 L 7.21875 -11.484375 C 7.21875 -11.703125 7.179688 -11.910156 7.109375 -12.109375 C 7.046875 -12.304688 6.859375 -12.414062 6.546875 -12.4375 L 6.546875 -12.625 L 8.53125 -13.25 L 8.53125 -1.296875 C 8.53125 -1.191406 8.539062 -1.070312 8.5625 -0.9375 C 8.59375 -0.8125 8.632812 -0.695312 8.6875 -0.59375 C 8.738281 -0.488281 8.804688 -0.394531 8.890625 -0.3125 C 8.972656 -0.238281 9.066406 -0.203125 9.171875 -0.203125 L 9.171875 0 Z M 5.03125 -0.515625 C 5.3125 -0.515625 5.582031 -0.570312 5.84375 -0.6875 C 6.113281 -0.800781 6.347656 -0.953125 6.546875 -1.140625 C 6.742188 -1.335938 6.90625 -1.5625 7.03125 -1.8125 C 7.15625 -2.070312 7.21875 -2.359375 7.21875 -2.671875 L 7.21875 -5.390625 C 7.21875 -5.765625 7.140625 -6.097656 6.984375 -6.390625 C 6.828125 -6.691406 6.628906 -6.945312 6.390625 -7.15625 C 6.148438 -7.375 5.882812 -7.535156 5.59375 -7.640625 C 5.3125 -7.753906 5.039062 -7.8125 4.78125 -7.8125 C 4.34375 -7.8125 3.945312 -7.707031 3.59375 -7.5 C 3.25 -7.300781 2.957031 -7.035156 2.71875 -6.703125 C 2.476562 -6.378906 2.300781 -6.015625 2.1875 -5.609375 C 2.070312 -5.210938 2.015625 -4.816406 2.015625 -4.421875 C 2.015625 -3.953125 2.078125 -3.488281 2.203125 -3.03125 C 2.335938 -2.570312 2.535156 -2.160156 2.796875 -1.796875 C 3.054688 -1.429688 3.367188 -1.128906 3.734375 -0.890625 C 4.109375 -0.648438 4.539062 -0.523438 5.03125 -0.515625 Z M 5.03125 -0.515625 "/></g></g><g style="fill:#02084b;fill-opacity:1;"><g transform="translate(324.192038, 211.211737)"><path style="stroke:none" d="M 1.171875 0 L 1.171875 -0.203125 C 1.273438 -0.203125 1.367188 -0.238281 1.453125 -0.3125 C 1.535156 -0.394531 1.601562 -0.488281 1.65625 -0.59375 C 1.707031 -0.695312 1.742188 -0.8125 1.765625 -0.9375 C 1.796875 -1.070312 1.8125 -1.191406 1.8125 -1.296875 L 1.8125 -6.796875 C 1.8125 -7.023438 1.773438 -7.238281 1.703125 -7.4375 C 1.640625 -7.644531 1.453125 -7.757812 1.140625 -7.78125 L 1.140625 -7.953125 L 3.125 -8.59375 L 3.125 -1.296875 C 3.125 -1.191406 3.132812 -1.070312 3.15625 -0.9375 C 3.1875 -0.8125 3.226562 -0.695312 3.28125 -0.59375 C 3.332031 -0.488281 3.394531 -0.394531 3.46875 -0.3125 C 3.550781 -0.238281 3.648438 -0.203125 3.765625 -0.203125 L 3.765625 0 Z M 1.265625 -10.5 C 1.265625 -10.769531 1.351562 -10.992188 1.53125 -11.171875 C 1.71875 -11.359375 1.941406 -11.453125 2.203125 -11.453125 C 2.472656 -11.453125 2.695312 -11.359375 2.875 -11.171875 C 3.0625 -10.992188 3.15625 -10.769531 3.15625 -10.5 C 3.15625 -10.238281 3.0625 -10.019531 2.875 -9.84375 C 2.695312 -9.675781 2.472656 -9.59375 2.203125 -9.59375 C 1.941406 -9.59375 1.71875 -9.675781 1.53125 -9.84375 C 1.351562 -10.019531 1.265625 -10.238281 1.265625 -10.5 Z M 1.265625 -10.5 "/></g></g><g style="fill:#02084b;fill-opacity:1;"><g transform="translate(327.77247, 211.211737)"><path style="stroke:none" d="M 8.234375 -0.71875 C 8.128906 -0.71875 8.03125 -0.691406 7.9375 -0.640625 C 7.84375 -0.597656 7.738281 -0.546875 7.625 -0.484375 C 7.394531 -0.347656 7.109375 -0.207031 6.765625 -0.0625 C 6.421875 0.0703125 5.96875 0.140625 5.40625 0.140625 C 4.726562 0.140625 4.101562 0.03125 3.53125 -0.1875 C 2.957031 -0.40625 2.457031 -0.707031 2.03125 -1.09375 C 1.613281 -1.488281 1.289062 -1.945312 1.0625 -2.46875 C 0.832031 -3 0.71875 -3.566406 0.71875 -4.171875 C 0.71875 -4.742188 0.816406 -5.285156 1.015625 -5.796875 C 1.222656 -6.316406 1.519531 -6.773438 1.90625 -7.171875 C 2.289062 -7.578125 2.765625 -7.898438 3.328125 -8.140625 C 3.890625 -8.378906 4.53125 -8.5 5.25 -8.5 C 5.738281 -8.5 6.132812 -8.441406 6.4375 -8.328125 C 6.75 -8.210938 7.007812 -8.101562 7.21875 -8 C 7.34375 -7.925781 7.457031 -7.867188 7.5625 -7.828125 C 7.675781 -7.796875 7.796875 -7.78125 7.921875 -7.78125 L 7.921875 -6.265625 L 7.71875 -6.265625 C 7.65625 -6.515625 7.535156 -6.734375 7.359375 -6.921875 C 7.179688 -7.117188 6.976562 -7.285156 6.75 -7.421875 C 6.53125 -7.554688 6.285156 -7.65625 6.015625 -7.71875 C 5.753906 -7.78125 5.5 -7.8125 5.25 -7.8125 C 4.707031 -7.8125 4.226562 -7.710938 3.8125 -7.515625 C 3.40625 -7.328125 3.066406 -7.078125 2.796875 -6.765625 C 2.535156 -6.460938 2.335938 -6.109375 2.203125 -5.703125 C 2.078125 -5.304688 2.015625 -4.894531 2.015625 -4.46875 C 2.015625 -3.976562 2.09375 -3.5 2.25 -3.03125 C 2.40625 -2.5625 2.628906 -2.140625 2.921875 -1.765625 C 3.222656 -1.398438 3.585938 -1.101562 4.015625 -0.875 C 4.441406 -0.644531 4.921875 -0.53125 5.453125 -0.53125 C 5.816406 -0.53125 6.15625 -0.582031 6.46875 -0.6875 C 6.78125 -0.800781 7.046875 -0.941406 7.265625 -1.109375 C 7.484375 -1.285156 7.660156 -1.472656 7.796875 -1.671875 C 7.929688 -1.878906 8.007812 -2.078125 8.03125 -2.265625 L 8.234375 -2.265625 Z M 8.234375 -0.71875 "/></g></g><g style="fill:#02084b;fill-opacity:1;"><g transform="translate(335.033466, 211.211737)"><path style="stroke:none" d="M 6.140625 0 L 6.140625 -1.015625 L 6.046875 -0.921875 C 5.710938 -0.585938 5.328125 -0.328125 4.890625 -0.140625 C 4.460938 0.046875 3.945312 0.140625 3.34375 0.140625 C 2.875 0.140625 2.472656 0.0859375 2.140625 -0.015625 C 1.816406 -0.117188 1.546875 -0.265625 1.328125 -0.453125 C 1.117188 -0.648438 0.960938 -0.875 0.859375 -1.125 C 0.765625 -1.382812 0.71875 -1.648438 0.71875 -1.921875 C 0.71875 -2.378906 0.835938 -2.78125 1.078125 -3.125 C 1.328125 -3.46875 1.679688 -3.769531 2.140625 -4.03125 C 2.609375 -4.300781 3.175781 -4.546875 3.84375 -4.765625 C 4.519531 -4.984375 5.285156 -5.195312 6.140625 -5.40625 C 6.117188 -5.925781 6.015625 -6.34375 5.828125 -6.65625 C 5.640625 -6.976562 5.421875 -7.226562 5.171875 -7.40625 C 4.921875 -7.582031 4.65625 -7.703125 4.375 -7.765625 C 4.09375 -7.828125 3.851562 -7.859375 3.65625 -7.859375 C 3.3125 -7.859375 3.007812 -7.800781 2.75 -7.6875 C 2.488281 -7.582031 2.265625 -7.445312 2.078125 -7.28125 C 1.890625 -7.125 1.726562 -6.945312 1.59375 -6.75 C 1.457031 -6.5625 1.347656 -6.378906 1.265625 -6.203125 L 1.09375 -6.203125 L 1.09375 -7.65625 C 1.195312 -7.664062 1.296875 -7.695312 1.390625 -7.75 C 1.484375 -7.8125 1.597656 -7.867188 1.734375 -7.921875 C 1.929688 -7.992188 2.203125 -8.109375 2.546875 -8.265625 C 2.890625 -8.421875 3.375 -8.5 4 -8.5 C 4.726562 -8.5 5.316406 -8.40625 5.765625 -8.21875 C 6.210938 -8.03125 6.5625 -7.78125 6.8125 -7.46875 C 7.0625 -7.164062 7.222656 -6.816406 7.296875 -6.421875 C 7.378906 -6.035156 7.421875 -5.640625 7.421875 -5.234375 L 7.421875 -1.296875 C 7.421875 -1.023438 7.476562 -0.773438 7.59375 -0.546875 C 7.71875 -0.316406 7.878906 -0.203125 8.078125 -0.203125 L 8.078125 0 Z M 6.140625 -1.890625 L 6.140625 -4.734375 L 5.953125 -4.6875 C 5.628906 -4.613281 5.238281 -4.507812 4.78125 -4.375 C 4.320312 -4.238281 3.882812 -4.066406 3.46875 -3.859375 C 3.0625 -3.648438 2.710938 -3.398438 2.421875 -3.109375 C 2.128906 -2.816406 1.984375 -2.476562 1.984375 -2.09375 C 1.984375 -1.664062 2.15625 -1.3125 2.5 -1.03125 C 2.84375 -0.75 3.296875 -0.609375 3.859375 -0.609375 C 4.296875 -0.609375 4.679688 -0.703125 5.015625 -0.890625 C 5.347656 -1.085938 5.648438 -1.34375 5.921875 -1.65625 Z M 6.140625 -1.890625 "/></g></g><g style="fill:#02084b;fill-opacity:1;"><g transform="translate(342.718829, 211.211737)"><path style="stroke:none" d=""/></g></g><g style="fill:#02084b;fill-opacity:1;"><g transform="translate(109.943076, 189.754863)"><path style="stroke:none" d="M 27.734375 -29.53125 L 14.703125 1.390625 L 1.671875 -29.53125 L 6.375 -29.53125 L 14.859375 -8.25 L 23.078125 -29.53125 Z M 27.734375 -29.53125 "/></g></g><g style="fill:#02084b;fill-opacity:1;"><g transform="translate(134.899202, 189.754863)"><path style="stroke:none" d="M 8.203125 -29.53125 L 8.203125 0 L 4.25 0 L 4.25 -29.53125 Z M 8.203125 -29.53125 "/></g></g><g style="fill:#02084b;fill-opacity:1;"><g transform="translate(142.944836, 189.754863)"><path style="stroke:none" d="M 25.9375 -2.203125 C 24.976562 -1.578125 23.769531 -1 22.3125 -0.46875 C 20.863281 0.0625 19.28125 0.328125 17.5625 0.328125 C 14.539062 0.328125 11.878906 -0.335938 9.578125 -1.671875 C 7.273438 -3.003906 5.503906 -4.800781 4.265625 -7.0625 C 3.023438 -9.320312 2.40625 -11.816406 2.40625 -14.546875 C 2.40625 -17.453125 3.03125 -20.066406 4.28125 -22.390625 C 5.539062 -24.722656 7.28125 -26.550781 9.5 -27.875 C 11.71875 -29.195312 14.226562 -29.859375 17.03125 -29.859375 C 18.6875 -29.859375 20.238281 -29.640625 21.6875 -29.203125 C 23.132812 -28.765625 24.425781 -28.191406 25.5625 -27.484375 L 23.96875 -23.765625 C 21.707031 -25.296875 19.4375 -26.0625 17.15625 -26.0625 C 15.25 -26.0625 13.484375 -25.554688 11.859375 -24.546875 C 10.242188 -23.535156 8.953125 -22.164062 7.984375 -20.4375 C 7.015625 -18.707031 6.53125 -16.8125 6.53125 -14.75 C 6.53125 -12.625 6.972656 -10.703125 7.859375 -8.984375 C 8.742188 -7.265625 10.007812 -5.921875 11.65625 -4.953125 C 13.300781 -3.992188 15.203125 -3.515625 17.359375 -3.515625 C 20.003906 -3.515625 22.304688 -4.265625 24.265625 -5.765625 Z M 25.9375 -2.203125 "/></g></g><g style="fill:#02084b;fill-opacity:1;"><g transform="translate(166.879789, 189.754863)"><path style="stroke:none" d="M 21.6875 -29.53125 L 21.6875 -25.734375 L 13.765625 -25.734375 L 13.765625 0 L 9.796875 0 L 9.796875 -25.734375 L 2.078125 -25.734375 L 2.078125 -29.53125 Z M 21.6875 -29.53125 "/></g></g><g style="fill:#02084b;fill-opacity:1;"><g transform="translate(184.973569, 189.754863)"><path style="stroke:none" d="M 2.40625 -14.75 C 2.40625 -17.4375 3.085938 -19.9375 4.453125 -22.25 C 5.816406 -24.570312 7.644531 -26.421875 9.9375 -27.796875 C 12.238281 -29.171875 14.753906 -29.859375 17.484375 -29.859375 C 20.179688 -29.859375 22.6875 -29.171875 25 -27.796875 C 27.3125 -26.421875 29.15625 -24.570312 30.53125 -22.25 C 31.90625 -19.9375 32.59375 -17.4375 32.59375 -14.75 C 32.59375 -12.019531 31.910156 -9.5 30.546875 -7.1875 C 29.191406 -4.875 27.347656 -3.039062 25.015625 -1.6875 C 22.691406 -0.34375 20.179688 0.328125 17.484375 0.328125 C 14.753906 0.328125 12.234375 -0.335938 9.921875 -1.671875 C 7.609375 -3.003906 5.773438 -4.820312 4.421875 -7.125 C 3.078125 -9.425781 2.40625 -11.96875 2.40625 -14.75 Z M 6.5 -14.703125 C 6.5 -12.691406 6.988281 -10.828125 7.96875 -9.109375 C 8.945312 -7.390625 10.285156 -6.023438 11.984375 -5.015625 C 13.691406 -4.015625 15.550781 -3.515625 17.5625 -3.515625 C 19.570312 -3.515625 21.414062 -4.007812 23.09375 -5 C 24.769531 -6 26.09375 -7.363281 27.0625 -9.09375 C 28.03125 -10.820312 28.515625 -12.707031 28.515625 -14.75 C 28.515625 -16.789062 28.019531 -18.679688 27.03125 -20.421875 C 26.050781 -22.160156 24.71875 -23.535156 23.03125 -24.546875 C 21.34375 -25.554688 19.492188 -26.0625 17.484375 -26.0625 C 15.460938 -26.0625 13.609375 -25.550781 11.921875 -24.53125 C 10.234375 -23.507812 8.90625 -22.125 7.9375 -20.375 C 6.976562 -18.632812 6.5 -16.742188 6.5 -14.703125 Z M 6.5 -14.703125 "/></g></g><g style="fill:#02084b;fill-opacity:1;"><g transform="translate(215.566517, 189.754863)"><path style="stroke:none" d="M 20.5 0 L 13.5625 -10.90625 C 13.34375 -10.875 13.015625 -10.859375 12.578125 -10.859375 L 8.203125 -10.859375 L 8.203125 0 L 4.25 0 L 4.25 -29.53125 L 12.125 -29.53125 C 14.144531 -29.53125 15.941406 -29.175781 17.515625 -28.46875 C 19.097656 -27.757812 20.335938 -26.71875 21.234375 -25.34375 C 22.140625 -23.96875 22.59375 -22.3125 22.59375 -20.375 C 22.59375 -18.550781 22.1875 -16.875 21.375 -15.34375 C 20.570312 -13.820312 19.34375 -12.671875 17.6875 -11.890625 L 25.125 0 Z M 12.5 -14.703125 C 14.625 -14.703125 16.15625 -15.257812 17.09375 -16.375 C 18.03125 -17.488281 18.5 -18.769531 18.5 -20.21875 C 18.5 -21.09375 18.300781 -21.953125 17.90625 -22.796875 C 17.507812 -23.640625 16.882812 -24.335938 16.03125 -24.890625 C 15.175781 -25.453125 14.09375 -25.734375 12.78125 -25.734375 L 8.203125 -25.734375 L 8.203125 -14.703125 Z M 12.5 -14.703125 "/></g></g><g style="fill:#02084b;fill-opacity:1;"><g transform="translate(238.11269, 189.754863)"><path style="stroke:none" d=""/></g></g><g style="fill:#02084b;fill-opacity:1;"><g transform="translate(246.607637, 189.754863)"><path style="stroke:none" d="M 27.65625 0 L 23.6875 0 L 23.6875 -12.953125 L 8.203125 -12.953125 L 8.203125 0 L 4.25 0 L 4.25 -29.53125 L 8.203125 -29.53125 L 8.203125 -16.75 L 23.6875 -16.75 L 23.6875 -29.53125 L 27.65625 -29.53125 Z M 27.65625 0 "/></g></g><g style="fill:#02084b;fill-opacity:1;"><g transform="translate(274.09625, 189.754863)"><path style="stroke:none" d="M 7.84375 -10.453125 C 7.84375 -9.148438 8.15625 -7.972656 8.78125 -6.921875 C 9.40625 -5.867188 10.253906 -5.035156 11.328125 -4.421875 C 12.410156 -3.816406 13.601562 -3.515625 14.90625 -3.515625 C 16.269531 -3.515625 17.503906 -3.8125 18.609375 -4.40625 C 19.710938 -5.007812 20.578125 -5.84375 21.203125 -6.90625 C 21.828125 -7.96875 22.140625 -9.148438 22.140625 -10.453125 L 22.140625 -29.53125 L 26.015625 -29.53125 L 26.015625 -10.328125 C 26.015625 -8.234375 25.523438 -6.375 24.546875 -4.75 C 23.566406 -3.132812 22.234375 -1.882812 20.546875 -1 C 18.859375 -0.113281 16.976562 0.328125 14.90625 0.328125 C 12.863281 0.328125 11 -0.113281 9.3125 -1 C 7.625 -1.882812 6.296875 -3.132812 5.328125 -4.75 C 4.359375 -6.375 3.875 -8.234375 3.875 -10.328125 L 3.875 -29.53125 L 7.84375 -29.53125 Z M 7.84375 -10.453125 "/></g></g><g style="fill:#02084b;fill-opacity:1;"><g transform="translate(299.583383, 189.754863)"><path style="stroke:none" d="M 27.40625 -2.53125 C 26.507812 -1.820312 25.097656 -1.164062 23.171875 -0.5625 C 21.253906 0.03125 19.476562 0.328125 17.84375 0.328125 C 14.769531 0.328125 12.0625 -0.300781 9.71875 -1.5625 C 7.375 -2.832031 5.566406 -4.570312 4.296875 -6.78125 C 3.035156 -8.988281 2.40625 -11.46875 2.40625 -14.21875 C 2.40625 -17.425781 3.085938 -20.207031 4.453125 -22.5625 C 5.816406 -24.914062 7.65625 -26.71875 9.96875 -27.96875 C 12.28125 -29.226562 14.8125 -29.859375 17.5625 -29.859375 C 19.21875 -29.859375 20.78125 -29.660156 22.25 -29.265625 C 23.726562 -28.867188 25.050781 -28.34375 26.21875 -27.6875 L 24.921875 -24.0625 C 24.046875 -24.550781 22.945312 -24.976562 21.625 -25.34375 C 20.300781 -25.707031 19.109375 -25.890625 18.046875 -25.890625 C 15.765625 -25.890625 13.742188 -25.425781 11.984375 -24.5 C 10.234375 -23.582031 8.878906 -22.265625 7.921875 -20.546875 C 6.972656 -18.828125 6.5 -16.828125 6.5 -14.546875 C 6.5 -12.421875 6.972656 -10.523438 7.921875 -8.859375 C 8.878906 -7.203125 10.226562 -5.914062 11.96875 -5 C 13.707031 -4.09375 15.695312 -3.640625 17.9375 -3.640625 C 18.96875 -3.640625 19.972656 -3.738281 20.953125 -3.9375 C 21.929688 -4.144531 22.75 -4.4375 23.40625 -4.8125 L 23.40625 -10.65625 L 17.515625 -10.65625 L 17.515625 -14.453125 L 27.40625 -14.453125 Z M 27.40625 -2.53125 "/></g></g><g style="fill:#02084b;fill-opacity:1;"><g transform="translate(325.887447, 189.754863)"><path style="stroke:none" d="M 2.40625 -14.75 C 2.40625 -17.4375 3.085938 -19.9375 4.453125 -22.25 C 5.816406 -24.570312 7.644531 -26.421875 9.9375 -27.796875 C 12.238281 -29.171875 14.753906 -29.859375 17.484375 -29.859375 C 20.179688 -29.859375 22.6875 -29.171875 25 -27.796875 C 27.3125 -26.421875 29.15625 -24.570312 30.53125 -22.25 C 31.90625 -19.9375 32.59375 -17.4375 32.59375 -14.75 C 32.59375 -12.019531 31.910156 -9.5 30.546875 -7.1875 C 29.191406 -4.875 27.347656 -3.039062 25.015625 -1.6875 C 22.691406 -0.34375 20.179688 0.328125 17.484375 0.328125 C 14.753906 0.328125 12.234375 -0.335938 9.921875 -1.671875 C 7.609375 -3.003906 5.773438 -4.820312 4.421875 -7.125 C 3.078125 -9.425781 2.40625 -11.96875 2.40625 -14.75 Z M 6.5 -14.703125 C 6.5 -12.691406 6.988281 -10.828125 7.96875 -9.109375 C 8.945312 -7.390625 10.285156 -6.023438 11.984375 -5.015625 C 13.691406 -4.015625 15.550781 -3.515625 17.5625 -3.515625 C 19.570312 -3.515625 21.414062 -4.007812 23.09375 -5 C 24.769531 -6 26.09375 -7.363281 27.0625 -9.09375 C 28.03125 -10.820312 28.515625 -12.707031 28.515625 -14.75 C 28.515625 -16.789062 28.019531 -18.679688 27.03125 -20.421875 C 26.050781 -22.160156 24.71875 -23.535156 23.03125 -24.546875 C 21.34375 -25.554688 19.492188 -26.0625 17.484375 -26.0625 C 15.460938 -26.0625 13.609375 -25.550781 11.921875 -24.53125 C 10.234375 -23.507812 8.90625 -22.125 7.9375 -20.375 C 6.976562 -18.632812 6.5 -16.742188 6.5 -14.703125 Z M 6.5 -14.703125 "/></g></g><g style="fill:#02084b;fill-opacity:1;"><g transform="translate(356.490282, 189.754863)"><path style="stroke:none" d=""/></g></g><g style="fill:#02084b;fill-opacity:1;"><g transform="translate(47.781029, 204.749526)"><path style="stroke:none" d="M 20.3125 10.171875 L 20.265625 -44.515625 L 27.65625 -41.28125 L 26.5 1.90625 L 55.9375 -28.921875 L 59.328125 -27.4375 L 21.390625 10.65625 Z M 20.3125 10.171875 "/></g></g><g style="fill:#02084b;fill-opacity:1;"><g transform="translate(88.18679, 222.412867)"><path style="stroke:none" d=""/></g></g><g style="fill:#02084b;fill-opacity:1;"><g transform="translate(88.18679, 222.412867)"><path style="stroke:none" d=""/></g></g><g style="fill:#02084b;fill-opacity:1;"><g transform="translate(105.110628, 229.811108)"><path style="stroke:none" d=""/></g></g><g style="fill:#02084b;fill-opacity:1;"><g transform="translate(74.316782, 170.492626)"><path style="stroke:none" d="M -20.28125 -10.1875 L -20.3125 44.5 L -27.703125 41.265625 L -26.5 -1.953125 L -55.96875 28.875 L -59.359375 27.390625 L -21.375 -10.671875 Z M -20.28125 -10.1875 "/></g></g><g style="fill:#02084b;fill-opacity:1;"><g transform="translate(33.92284, 152.787379)"><path style="stroke:none" d=""/></g></g><g style="fill:#02084b;fill-opacity:1;"><g transform="translate(33.92284, 152.787379)"><path style="stroke:none" d=""/></g></g><g style="fill:#02084b;fill-opacity:1;"><g transform="translate(17.003492, 145.371384)"><path style="stroke:none" d=""/></g></g><path style="fill:none;stroke-width:7;stroke-linecap:butt;stroke-linejoin:miter;stroke:#02084b;stroke-opacity:1;stroke-miterlimit:4;" d="M -0.00123817 3.497557 L 32.030022 3.497557 " transform="matrix(0.749634,0,0,0.749634,49.118116,182.104675)"/></g></svg>